<?xml version="1.0" encoding="utf-8"?>
<!-- Generator: Adobe Illustrator 16.0.3, SVG Export Plug-In . SVG Version: 6.00 Build 0)  -->
<!DOCTYPE svg PUBLIC "-//W3C//DTD SVG 1.1//EN" "http://www.w3.org/Graphics/SVG/1.1/DTD/svg11.dtd">
<svg version="1.1" id="Layer_1" xmlns="http://www.w3.org/2000/svg" xmlns:xlink="http://www.w3.org/1999/xlink" x="0px" y="0px"
	 width="507.545px" height="420px" viewBox="0 0 507.545 420" enable-background="new 0 0 507.545 420" xml:space="preserve">
<g>
	<path fill="#1D1D1B" d="M496.325,33.072c-13.313,25.142-26.252,50.655-38.088,76.543c-16.639,36.604-31.428,73.947-44.369,112.405
		c5.545,4.434,9.984,9.613,13.313,16.27c8.504,18.854,2.955,39.193-2.588,58.051c-12.205,39.196-31.801,75.801-57.684,107.603
		c-7.768,9.613-20.709-1.111-18.488-11.094c5.545-28.472,11.463-56.943,18.857-85.045c6.656-24.403,13.682-49.176,21.814-73.583
		c-11.09-5.176-24.402-7.025-36.234-8.875c-36.975-5.918-74.324-7.395-111.668-5.545h-1.111
		c-8.502,24.403-15.9,48.807-22.926,73.582c-6.652,25.142-11.459,52.137-22.924,75.801c-4.068,7.768-15.531,3.695-15.9-4.068
		c-0.738-26.622,8.506-54.354,15.9-79.496c6.285-21.45,12.943-42.526,19.971-63.6c-27.738,2.957-55.098,7.764-82.092,14.79
		c-18.117,5.176-36.232,11.094-53.982,17.746c-17.75,6.287-34.76,14.424-52.879,19.97c-10.352,3.33-14.416-10.722-7.025-16.271
		c18.488-14.051,41.416-23.292,62.861-31.06c21.076-7.768,42.891-14.051,64.711-19.227c25.51-5.546,51.393-9.614,77.646-11.833
		c17.012-46.218,36.607-91.332,58.424-135.335c6.283-12.567,25.145-1.477,18.857,11.098
		c-19.227,39.931-36.605,80.973-51.768,122.757c7.025-0.369,13.682-0.369,20.707-0.369c19.967,0,39.936,1.111,59.531,3.327
		c19.229,2.222,39.197,4.438,57.686,10.355c3.326,1.107,6.652,2.219,9.979,3.695c22.928-64.707,51.402-127.564,85.045-187.468
		C487.077,14.583,501.872,23.458,496.325,33.072z M405.362,248.642c-9.244,30.321-17.377,61.012-24.402,91.701
		c9.982-18.857,18.119-39.196,23.664-60.272C407.212,269.718,409.431,258.255,405.362,248.642z"/>
</g>
</svg>
