<?xml version="1.0" encoding="utf-8"?>
<!-- Generator: Adobe Illustrator 16.0.3, SVG Export Plug-In . SVG Version: 6.00 Build 0)  -->
<!DOCTYPE svg PUBLIC "-//W3C//DTD SVG 1.1//EN" "http://www.w3.org/Graphics/SVG/1.1/DTD/svg11.dtd">
<svg version="1.1" xmlns="http://www.w3.org/2000/svg" xmlns:xlink="http://www.w3.org/1999/xlink" x="0px" y="0px" width="414px"
	 height="338px" viewBox="0 0 414 338" enable-background="new 0 0 414 338" xml:space="preserve">
<g id="BACKGROUND">
</g>
<g id="OBJECTS">
	<text transform="matrix(1 0 0 1 81.6807 306.8525)" fill="#405B91" font-family="'OpenSans-Bold'" font-size="19">Pages Under Construction</text>
	<text transform="matrix(1 0 0 1 155.7632 327.8535)" fill="#405B91" font-family="'OpenSans-Semibold'" font-size="13">Will be Back Soon!</text>
	<g>
		<g>
			<g>
				<g>
					<path fill="#6CDD6C" d="M272.659,252.88c-0.54-1.764-1.775-3.414-3.53-3.979c-1.756-0.565-3.983,0.291-4.529,2.052
						c-1.615-1.349-4.09-0.277-5.388,1.379c-2.099,2.678-0.477,7.064-0.127,7.349c0.379,0.308,1.404,0.254,1.404,0.254l15.705-0.088
						c0,0,2.881-0.21,4.21-0.74c2.676-1.066,4.496-5.671,2.773-7.98c-1.173-1.574-3.489-1.908-5.36-1.311
						C275.947,250.412,274.133,251.582,272.659,252.88"/>
				</g>
				<g>
					<path fill="#50AA50" d="M260.265,260.457c-0.397,0-1.107-0.052-1.507-0.376c-0.615-0.5-2.181-5.229,0.046-8.07
						c0.938-1.196,2.343-2.026,3.668-2.166c0.691-0.079,1.337,0.042,1.899,0.335c0.337-0.605,0.871-1.114,1.549-1.467
						c1.033-0.536,2.292-0.653,3.368-0.306c1.562,0.502,2.871,1.821,3.606,3.596c1.529-1.24,3.199-2.182,4.765-2.683
						c1.876-0.599,4.532-0.386,5.935,1.495c0.808,1.084,0.995,2.685,0.512,4.394c-0.576,2.04-1.953,3.759-3.508,4.378
						c-1.389,0.555-4.245,0.767-4.366,0.776l-15.739,0.088C260.44,260.454,260.362,260.457,260.265,260.457z M262.874,250.859
						c-0.096,0-0.193,0.005-0.294,0.016c-1.039,0.109-2.202,0.808-2.96,1.775c-1.843,2.352-0.466,6.273-0.165,6.669
						c0.069,0.05,0.588,0.12,1.006,0.096l15.729-0.088c-0.007-0.001,2.782-0.209,4.022-0.704c1.247-0.496,2.41-1.982,2.895-3.695
						c0.395-1.396,0.269-2.669-0.345-3.492c-1.098-1.475-3.253-1.617-4.787-1.126c-1.633,0.521-3.399,1.572-4.974,2.959
						c-0.132,0.117-0.314,0.158-0.483,0.11c-0.17-0.049-0.304-0.18-0.355-0.348c-0.554-1.813-1.748-3.172-3.193-3.638
						c-0.815-0.262-1.778-0.173-2.571,0.24c-0.651,0.338-1.114,0.86-1.304,1.473c-0.052,0.165-0.183,0.294-0.349,0.343
						c-0.165,0.049-0.345,0.013-0.479-0.099C263.877,251.024,263.408,250.859,262.874,250.859z"/>
				</g>
			</g>
			<g>
				<g>
					<g>
						<path fill="#50AA50" d="M256.144,252.285c-0.449,0.874-0.643,1.824-0.536,2.804c0.054,0.492,0.832,0.497,0.778,0
							c-0.093-0.846,0.039-1.652,0.429-2.411C257.043,252.232,256.372,251.839,256.144,252.285L256.144,252.285z"/>
					</g>
				</g>
			</g>
			<g>
				<g>
					<g>
						<path fill="#50AA50" d="M253.874,252.908c-0.245,0.88-0.263,1.759-0.067,2.649c0.107,0.489,0.857,0.282,0.75-0.206
							c-0.166-0.756-0.14-1.492,0.067-2.236C254.758,252.632,254.008,252.426,253.874,252.908L253.874,252.908z"/>
					</g>
				</g>
			</g>
			<g>
				<g>
					<g>
						<path fill="#50AA50" d="M258.236,251.33c0.501,0,0.502-0.777,0-0.777C257.736,250.553,257.735,251.33,258.236,251.33
							L258.236,251.33z"/>
					</g>
				</g>
			</g>
			<g>
				<g>
					<g>
						<path fill="#50AA50" d="M260.44,255.09c0,0.23,0,0.461,0,0.691c0,0.5,0.778,0.501,0.778,0c0-0.23,0-0.461,0-0.691
							C261.219,254.589,260.44,254.588,260.44,255.09L260.44,255.09z"/>
					</g>
				</g>
			</g>
			<g>
				<g>
					<g>
						<path fill="#50AA50" d="M273.577,256.3c0,0.115,0,0.23,0,0.346c0,0.5,0.777,0.501,0.777,0c0-0.115,0-0.23,0-0.346
							C274.354,255.799,273.577,255.798,273.577,256.3L273.577,256.3z"/>
					</g>
				</g>
			</g>
			<g>
				<g>
					<g>
						<path fill="#50AA50" d="M272.135,255.364c0.058,0.058,0.115,0.115,0.173,0.173c0.354,0.354,0.905-0.195,0.55-0.55
							c-0.057-0.058-0.114-0.115-0.172-0.173C272.331,254.46,271.78,255.01,272.135,255.364L272.135,255.364z"/>
					</g>
				</g>
			</g>
		</g>
		<g>
			<path fill="#405B91" d="M51.117,238.22H24.789c-0.573,0-1.037-0.464-1.037-1.037s0.464-1.037,1.037-1.037h26.329
				c0.573,0,1.037,0.464,1.037,1.037S51.69,238.22,51.117,238.22z"/>
		</g>
		<g>
			<g>
				<path fill="#FFFFFF" d="M282.96,146.907h-0.752c0-0.622-0.506-1.128-1.128-1.128c-0.621,0-1.127,0.506-1.127,1.128H279.2
					c0-1.037,0.844-1.88,1.88-1.88C282.117,145.026,282.96,145.87,282.96,146.907z"/>
			</g>
		</g>
		<g>
			<g>
				<path fill="#FFFFFF" d="M285.649,103.121h-0.752c0-0.622-0.506-1.128-1.128-1.128s-1.128,0.506-1.128,1.128h-0.752
					c0-1.037,0.844-1.88,1.88-1.88C284.807,101.241,285.649,102.084,285.649,103.121z"/>
			</g>
		</g>
		<g>
			<g>
				<g>
					<path fill="#415B91" d="M192.043,255.273h-35.785l0.607-1.439c2.346-5.566,2.589-10.333,2.231-15.777l-0.072-1.102
						l30.171-0.093l0.007,1.032c0.026,3.52,0.978,11.513,2.411,16.028L192.043,255.273z M159.346,253.199h29.9
						c-1.151-4.353-1.935-10.644-2.089-14.257l-25.926,0.08C161.477,243.851,161.182,248.243,159.346,253.199z"/>
				</g>
			</g>
		</g>
		<g>
			<g>
				<g>
					<path fill="#415B91" d="M145.969,238.924c-27.168,0-49.176-0.148-50.143-0.494c-2.325-0.828-5.364-4.051-5.406-6.337
						c-0.088-4.95-0.301-11.691-0.547-19.499c-0.744-23.538-1.762-55.773-0.441-73.612c0.241-3.25,2.926-5.761,6.135-5.761
						c0.035,0,0.069,0,0.103,0l156.631,0.233c3.313,0.057,5.97,2.73,6.047,6.086c0.119,5.21,0.289,10.535,0.46,15.933
						c0.717,22.598,1.458,45.966-1.045,68.063c-0.099,0.871-0.142,1.834-0.187,2.83c-0.211,4.636-0.474,10.407-6.449,11.586
						C248.206,238.529,190.239,238.924,145.969,238.924z M95.58,134.888c-2.351,0-4.309,1.838-4.485,4.218
						c-1.315,17.75-0.298,49.935,0.445,73.435c0.248,7.813,0.461,14.561,0.549,19.522c0.026,1.442,2.437,4.133,4.298,4.797
						c3.335,0.681,150.591,0.178,154.419-0.542c4.691-0.927,4.902-5.553,5.106-10.027c0.047-1.036,0.094-2.035,0.195-2.942
						c2.489-21.976,1.749-45.284,1.034-67.823c-0.171-5.401-0.34-10.731-0.461-15.946c-0.056-2.457-1.989-4.415-4.401-4.458
						l-156.624-0.233C95.63,134.888,95.605,134.888,95.58,134.888z"/>
				</g>
			</g>
		</g>
		<g>
			<g>
				<path fill-rule="evenodd" clip-rule="evenodd" fill="#B6D0FB" d="M247.92,138.846l-147.575-0.194
					c-2.654-0.04-4.883,1.78-5.082,4.159c-1.653,19.752,0.601,60.964,0.934,77.55c0.033,1.616,2.671,4.04,4.572,4.641
					c2.237,0.707,142.48,0.173,145.908-0.426c6.155-1.074,5.107-7.378,5.624-11.412c2.921-22.813,1.127-47.61,0.545-69.923
					C252.783,140.824,250.61,138.886,247.92,138.846z"/>
			</g>
		</g>
		<g>
			<g>
				<g>
					<path fill="#415B91" d="M204.845,260.951h-61.404c-2.437,0-3.712-1.916-3.712-3.81c0-1.896,1.275-3.815,3.712-3.815h61.404
						c2.437,0,3.711,1.917,3.711,3.811C208.557,259.031,207.282,260.951,204.845,260.951z M143.441,254.993
						c-1.614,0-2.044,1.351-2.044,2.148c0,0.796,0.431,2.143,2.044,2.143h61.404c1.614,0,2.044-1.35,2.044-2.147
						c0-0.797-0.431-2.144-2.044-2.144H143.441z"/>
				</g>
			</g>
		</g>
		<g>
			<g>
				<g>
					<g>
						<g>
							<path fill-rule="evenodd" clip-rule="evenodd" fill="#415B91" d="M100.678,230.971
								C100.315,230.971,100.315,230.971,100.678,230.971"/>
						</g>
					</g>
				</g>
				<g>
					<g>
						<g>
							<g>
								<path fill="#415B91" d="M100.678,233.113c2.758,0,2.762-4.286,0-4.286C97.921,228.827,97.916,233.113,100.678,233.113
									L100.678,233.113z"/>
							</g>
						</g>
					</g>
				</g>
			</g>
			<g>
				<g>
					<g>
						<g>
							<path fill-rule="evenodd" clip-rule="evenodd" fill="#415B91" d="M109.318,230.971
								C108.956,230.971,108.956,230.971,109.318,230.971"/>
						</g>
					</g>
				</g>
				<g>
					<g>
						<g>
							<g>
								<path fill="#415B91" d="M109.318,233.113c2.758,0,2.762-4.286,0-4.286C106.561,228.827,106.556,233.113,109.318,233.113
									L109.318,233.113z"/>
							</g>
						</g>
					</g>
				</g>
			</g>
			<g>
				<g>
					<g>
						<g>
							<path fill-rule="evenodd" clip-rule="evenodd" fill="#415B91" d="M117.958,230.971
								C117.595,230.971,117.595,230.971,117.958,230.971"/>
						</g>
					</g>
				</g>
				<g>
					<g>
						<g>
							<g>
								<path fill="#415B91" d="M117.958,233.113c2.758,0,2.763-4.286,0-4.286C115.201,228.827,115.196,233.113,117.958,233.113
									L117.958,233.113z"/>
							</g>
						</g>
					</g>
				</g>
			</g>
		</g>
		<g>
			<g>
				<g>
					<g>
						<path fill-rule="evenodd" clip-rule="evenodd" fill="#415B91" d="M174.143,136.566
							C173.973,136.566,173.973,136.566,174.143,136.566"/>
					</g>
				</g>
			</g>
			<g>
				<g>
					<g>
						<g>
							<path fill="#415B91" d="M174.143,137.571c1.294,0,1.296-2.01,0-2.01C172.85,135.561,172.848,137.571,174.143,137.571
								L174.143,137.571z"/>
						</g>
					</g>
				</g>
			</g>
		</g>
		<g>
			<g>
				<polygon fill="#B6D0FB" points="347.316,256.879 326.158,256.879 334.296,230.15 339.179,230.15 				"/>
			</g>
			<g>
				<rect x="324.41" y="256.879" fill="#B6D0FB" width="24.654" height="3.054"/>
			</g>
			<g>
				<polygon fill="#415B91" points="328.192,250.196 326.158,256.879 347.316,256.879 345.282,250.196 				"/>
			</g>
			<g>
				<polygon fill="#415B91" points="330.228,243.515 343.248,243.515 341.213,236.833 332.262,236.833 				"/>
			</g>
		</g>
		<g id="XMLID_11_">
			<g id="XMLID_493_">
				<path fill="#B6D0FB" d="M355.969,259.76h4.695v-18.179h24.1v18.179h4.695v-18.179h4.972v-14.516h-3.966v-1.341h-6.841v1.341
					h-21.351v-1.341h-6.841v1.341h-4.354v14.516h4.891V259.76z M392.915,228.582v0.061l-2.894,11.423h-5.165l2.909-11.483H392.915z
					 M379.446,240.065h-5.164l2.909-11.483h5.164L379.446,240.065z M368.872,240.065h-5.165l2.909-11.483h5.165L368.872,240.065z
					 M356.042,228.582h5.164l-2.909,11.483h-5.164L356.042,228.582z"/>
			</g>
		</g>
		<g>
			<g>
				<g>
					<path fill="#B6D0FB" d="M125.045,82.051l1.406-1.407c0.287-0.284,0.287-0.747,0-1.033l-1.226-1.223
						c-0.282-0.286-0.357-0.804-0.163-1.156l0.998-2.424c0.112-0.388,0.536-0.704,0.937-0.704h1.734c0.403,0,0.73-0.328,0.73-0.726
						v-1.994c0-0.404-0.327-0.728-0.73-0.728h-1.734c-0.401,0-0.825-0.315-0.937-0.702l-0.998-2.422
						c-0.194-0.354-0.119-0.873,0.163-1.159l1.226-1.223c0.287-0.286,0.287-0.749,0-1.029l-1.406-1.412
						c-0.285-0.284-0.749-0.284-1.031,0l-1.227,1.225c-0.285,0.284-0.803,0.358-1.154,0.168l-2.427-1
						c-0.385-0.114-0.7-0.534-0.7-0.937V60.43c0-0.4-0.327-0.731-0.729-0.731h-1.991c-0.403,0-0.73,0.331-0.73,0.731v1.735
						c0,0.403-0.314,0.823-0.7,0.937l-2.427,1c-0.351,0.19-0.872,0.116-1.154-0.168l-1.228-1.224c-0.283-0.286-0.746-0.286-1.028,0
						l-1.412,1.411c-0.285,0.281-0.285,0.743,0,1.029l1.225,1.223c0.284,0.286,0.359,0.806,0.167,1.159l-0.999,2.422
						c-0.113,0.387-0.537,0.702-0.937,0.702h-1.736c-0.4,0-0.729,0.324-0.729,0.728v1.994c0,0.398,0.329,0.726,0.729,0.726h1.736
						c0.4,0,0.824,0.315,0.937,0.704l0.999,2.424c0.193,0.354,0.118,0.87-0.167,1.156l-1.225,1.223
						c-0.285,0.286-0.285,0.749,0,1.033l1.412,1.407c0.282,0.288,0.745,0.288,1.028,0l1.228-1.224
						c0.282-0.284,0.804-0.358,1.157-0.165l2.424,0.998c0.386,0.111,0.7,0.534,0.7,0.936v1.738c0,0.398,0.327,0.728,0.73,0.728
						h1.991c0.402,0,0.729-0.329,0.729-0.728v-1.738c0-0.402,0.314-0.825,0.7-0.936l2.427-0.998
						c0.351-0.194,0.869-0.119,1.154,0.165l1.227,1.224C124.296,82.338,124.76,82.338,125.045,82.051z M116.782,78.199
						c-3.214,0-5.82-2.607-5.82-5.818c0-3.214,2.606-5.818,5.82-5.818c3.213,0,5.819,2.604,5.819,5.818
						C122.601,75.591,119.995,78.199,116.782,78.199z"/>
				</g>
			</g>
			<g>
				<g>
					<path fill="#B6D0FB" d="M138.501,87.55l-0.355-1.182c-0.073-0.239-0.326-0.375-0.564-0.303l-1.026,0.312
						c-0.239,0.073-0.547-0.04-0.683-0.251l-1.033-1.253c-0.174-0.173-0.224-0.497-0.106-0.717l0.506-0.946
						c0.119-0.222,0.035-0.496-0.182-0.613l-1.088-0.583c-0.219-0.119-0.494-0.033-0.612,0.186l-0.509,0.946
						c-0.117,0.218-0.413,0.357-0.655,0.307l-1.618-0.163c-0.247,0.002-0.512-0.189-0.582-0.43l-0.313-1.027
						c-0.071-0.237-0.323-0.375-0.562-0.3l-1.182,0.354c-0.242,0.074-0.373,0.326-0.302,0.566l0.313,1.026
						c0.073,0.241-0.041,0.544-0.253,0.681l-1.255,1.035c-0.171,0.177-0.497,0.222-0.715,0.105l-0.948-0.507
						c-0.217-0.118-0.494-0.037-0.609,0.185l-0.585,1.085c-0.115,0.222-0.035,0.497,0.185,0.613l0.948,0.511
						c0.221,0.116,0.358,0.411,0.307,0.653l-0.162,1.616c0,0.25-0.191,0.515-0.431,0.583l-1.028,0.313
						c-0.24,0.071-0.376,0.326-0.302,0.563l0.357,1.18c0.071,0.241,0.325,0.375,0.565,0.301l1.028-0.31
						c0.236-0.071,0.542,0.043,0.677,0.25l1.034,1.256c0.176,0.173,0.224,0.498,0.107,0.717l-0.508,0.946
						c-0.115,0.219-0.033,0.493,0.187,0.614l1.085,0.581c0.22,0.118,0.495,0.035,0.613-0.184l0.509-0.948
						c0.115-0.222,0.413-0.357,0.655-0.308l1.615,0.165c0.252,0,0.514,0.19,0.585,0.431l0.31,1.026
						c0.073,0.239,0.328,0.376,0.564,0.302l1.181-0.357c0.237-0.071,0.374-0.326,0.305-0.562l-0.312-1.027
						c-0.074-0.238,0.038-0.548,0.246-0.681l1.256-1.033c0.173-0.177,0.499-0.225,0.718-0.109l0.946,0.508
						c0.221,0.122,0.499,0.037,0.614-0.184l0.583-1.088c0.119-0.217,0.033-0.494-0.187-0.612l-0.948-0.509
						c-0.219-0.12-0.357-0.411-0.305-0.651l0.164-1.622c-0.002-0.246,0.192-0.511,0.428-0.582l1.029-0.311
						C138.438,88.041,138.574,87.79,138.501,87.55z M133.98,90.934c-0.939,1.757-3.129,2.417-4.881,1.477
						c-1.756-0.941-2.417-3.127-1.477-4.879c0.94-1.76,3.13-2.419,4.883-1.478C134.258,86.996,134.92,89.181,133.98,90.934z"/>
				</g>
			</g>
		</g>
		<g>
			<path fill="#405B91" d="M197.389,110.33h-32.6c-0.573,0-1.037-0.464-1.037-1.037s0.464-1.037,1.037-1.037h32.6
				c0.573,0,1.037,0.464,1.037,1.037S197.961,110.33,197.389,110.33z"/>
		</g>
		<g>
			<path fill="#405B91" d="M131.021,125.139H78.363c-0.572,0-1.037-0.464-1.037-1.037s0.465-1.037,1.037-1.037h52.658
				c0.573,0,1.037,0.464,1.037,1.037S131.594,125.139,131.021,125.139z"/>
		</g>
		<g>
			<path fill="#405B91" d="M383.498,153.178h-52.657c-0.573,0-1.037-0.464-1.037-1.037s0.464-1.037,1.037-1.037h52.657
				c0.573,0,1.037,0.464,1.037,1.037S384.071,153.178,383.498,153.178z"/>
		</g>
		<g>
			<path fill="#405B91" d="M404.199,261.988H5.801c-0.573,0-1.037-0.464-1.037-1.037s0.464-1.037,1.037-1.037h398.398
				c0.573,0,1.037,0.464,1.037,1.037S404.772,261.988,404.199,261.988z"/>
		</g>
		<g>
			<g>
				<g>
					<path fill="#B6D0FB" d="M258.062,97.305c-2.233,0-4.333,0.87-5.913,2.45c-2.693,2.693-3.229,6.867-1.302,10.148l0.138,0.232
						l-8.469,8.468c-0.011,0.012-0.411,0.399-0.417,0.963c-0.004,0.425,0.211,0.858,0.64,1.286c0.455,0.454,0.932,0.685,1.415,0.685
						c0.582,0,0.993-0.337,0.997-0.339l8.446-8.451l0.234,0.138c1.278,0.75,2.742,1.147,4.233,1.147
						c2.233,0,4.333-0.869,5.912-2.448c3.261-3.262,3.261-8.567,0-11.829C262.397,98.174,260.296,97.305,258.062,97.305z
						 M258.062,111.549c-3.241,0-5.879-2.638-5.88-5.88c0.001-3.242,2.64-5.882,5.882-5.882l0,0c3.243,0,5.881,2.639,5.881,5.882
						C263.944,108.912,261.306,111.549,258.062,111.549z"/>
				</g>
			</g>
			<g>
				<g>
					<path fill="#B6D0FB" d="M254.962,106.892h6.057v-1.55h-6.057V106.892z"/>
				</g>
			</g>
		</g>
		<g>
			<g>
				<path fill="#405B91" d="M102.749,260.067c-0.573,0-1.037-0.464-1.037-1.037v-79.873c0-0.572,0.464-1.037,1.037-1.037
					s1.037,0.465,1.037,1.037v79.873C103.786,259.604,103.321,260.067,102.749,260.067z"/>
			</g>
			<g>
				<path fill="#405B91" d="M121.31,260.067c-0.573,0-1.037-0.464-1.037-1.037v-79.873c0-0.572,0.464-1.037,1.037-1.037
					s1.037,0.465,1.037,1.037v79.873C122.347,259.604,121.883,260.067,121.31,260.067z"/>
			</g>
			<g>
				<path fill="#405B91" d="M121.31,185.652h-18.562c-0.573,0-1.037-0.464-1.037-1.037c0-0.572,0.464-1.037,1.037-1.037h18.562
					c0.573,0,1.037,0.465,1.037,1.037C122.347,185.188,121.883,185.652,121.31,185.652z"/>
			</g>
			<g>
				<path fill="#405B91" d="M121.31,194.778h-18.562c-0.573,0-1.037-0.464-1.037-1.037s0.464-1.037,1.037-1.037h18.562
					c0.573,0,1.037,0.464,1.037,1.037S121.883,194.778,121.31,194.778z"/>
			</g>
			<g>
				<path fill="#405B91" d="M121.31,203.903h-18.562c-0.573,0-1.037-0.464-1.037-1.037s0.464-1.037,1.037-1.037h18.562
					c0.573,0,1.037,0.464,1.037,1.037S121.883,203.903,121.31,203.903z"/>
			</g>
			<g>
				<path fill="#405B91" d="M121.31,213.028h-18.562c-0.573,0-1.037-0.464-1.037-1.037s0.464-1.037,1.037-1.037h18.562
					c0.573,0,1.037,0.464,1.037,1.037S121.883,213.028,121.31,213.028z"/>
			</g>
			<g>
				<path fill="#405B91" d="M121.31,222.153h-18.562c-0.573,0-1.037-0.464-1.037-1.037s0.464-1.037,1.037-1.037h18.562
					c0.573,0,1.037,0.464,1.037,1.037S121.883,222.153,121.31,222.153z"/>
			</g>
			<g>
				<path fill="#405B91" d="M121.31,231.278h-18.562c-0.573,0-1.037-0.464-1.037-1.037s0.464-1.037,1.037-1.037h18.562
					c0.573,0,1.037,0.464,1.037,1.037S121.883,231.278,121.31,231.278z"/>
			</g>
			<g>
				<path fill="#405B91" d="M121.31,240.403h-18.562c-0.573,0-1.037-0.464-1.037-1.037s0.464-1.037,1.037-1.037h18.562
					c0.573,0,1.037,0.464,1.037,1.037S121.883,240.403,121.31,240.403z"/>
			</g>
			<g>
				<path fill="#405B91" d="M121.31,249.527h-18.562c-0.573,0-1.037-0.464-1.037-1.037s0.464-1.037,1.037-1.037h18.562
					c0.573,0,1.037,0.464,1.037,1.037S121.883,249.527,121.31,249.527z"/>
			</g>
		</g>
		<g>
			<g>
				<path fill="#405B91" d="M77.469,183.032c-0.573,0-1.037-0.465-1.037-1.037v-4.038c0-0.573,0.464-1.037,1.037-1.037
					s1.037,0.464,1.037,1.037v4.038C78.506,182.567,78.042,183.032,77.469,183.032z"/>
			</g>
			<g>
				<path fill="#405B91" d="M79.488,181.013h-4.038c-0.573,0-1.037-0.464-1.037-1.037c0-0.572,0.464-1.037,1.037-1.037h4.038
					c0.573,0,1.037,0.465,1.037,1.037C80.525,180.549,80.061,181.013,79.488,181.013z"/>
			</g>
		</g>
		<g>
			<g>
				<path fill="#405B91" d="M170.736,38.596c-0.573,0-1.037-0.464-1.037-1.037v-4.038c0-0.573,0.464-1.037,1.037-1.037
					c0.572,0,1.037,0.464,1.037,1.037v4.038C171.773,38.131,171.309,38.596,170.736,38.596z"/>
			</g>
			<g>
				<path fill="#405B91" d="M172.755,36.577h-4.037c-0.573,0-1.037-0.464-1.037-1.037s0.464-1.037,1.037-1.037h4.037
					c0.573,0,1.037,0.464,1.037,1.037S173.328,36.577,172.755,36.577z"/>
			</g>
		</g>
		<g>
			<g>
				<path fill="#405B91" d="M203.43,247.661c-0.094,0-0.19-0.014-0.285-0.04l-3.882-1.107c-0.551-0.158-0.87-0.731-0.712-1.282
					c0.157-0.551,0.732-0.864,1.281-0.713l3.883,1.107c0.551,0.158,0.87,0.731,0.712,1.282
					C204.296,247.364,203.881,247.661,203.43,247.661z"/>
			</g>
			<g>
				<path fill="#405B91" d="M200.934,249.048c-0.094,0-0.19-0.013-0.285-0.039c-0.551-0.158-0.87-0.731-0.712-1.282l1.109-3.883
					c0.158-0.551,0.732-0.864,1.282-0.713c0.551,0.158,0.87,0.731,0.712,1.282l-1.109,3.883
					C201.8,248.752,201.385,249.048,200.934,249.048z"/>
			</g>
		</g>
		<g>
			<g>
				<path fill="#405B91" d="M183.03,125.694c-0.094,0-0.189-0.013-0.285-0.041l-3.883-1.109c-0.551-0.157-0.87-0.731-0.712-1.282
					c0.158-0.551,0.729-0.87,1.282-0.713l3.883,1.109c0.551,0.157,0.87,0.731,0.712,1.282
					C183.897,125.397,183.481,125.694,183.03,125.694z"/>
			</g>
			<g>
				<path fill="#405B91" d="M180.535,127.081c-0.094,0-0.19-0.013-0.285-0.041c-0.551-0.157-0.87-0.731-0.712-1.282l1.108-3.882
					c0.157-0.551,0.729-0.87,1.282-0.712c0.551,0.157,0.87,0.731,0.712,1.282l-1.109,3.882
					C181.401,126.783,180.986,127.081,180.535,127.081z"/>
			</g>
		</g>
		<g>
			<g>
				<g>
					<circle fill="#B6D0FB" cx="180.31" cy="87.474" r="14.407"/>
				</g>
			</g>
			<g>
				<g>
					<g>
						<circle fill="#FFFFFF" cx="180.31" cy="87.474" r="10.792"/>
					</g>
				</g>
				<g>
					<g>
						<g>
							<path fill="#405B91" d="M180.31,98.684c-6.181,0-11.21-5.028-11.21-11.21c0-6.181,5.029-11.21,11.21-11.21
								c6.182,0,11.21,5.029,11.21,11.21C191.521,93.655,186.492,98.684,180.31,98.684z M180.31,77.099
								c-5.721,0-10.375,4.654-10.375,10.375c0,5.721,4.654,10.375,10.375,10.375s10.375-4.654,10.375-10.375
								C190.685,81.753,186.031,77.099,180.31,77.099z"/>
						</g>
					</g>
				</g>
			</g>
			<g>
				<g>
					<g>
						<path fill="#405B91" d="M180.31,87.891c-0.23,0-0.417-0.187-0.417-0.417v-5.495c0-0.23,0.187-0.417,0.417-0.417
							c0.231,0,0.418,0.187,0.418,0.417v5.495C180.728,87.705,180.541,87.891,180.31,87.891z"/>
					</g>
				</g>
				<g>
					<g>
						<path fill="#405B91" d="M186.748,87.891h-6.438c-0.23,0-0.417-0.187-0.417-0.417c0-0.23,0.187-0.417,0.417-0.417h6.438
							c0.231,0,0.418,0.187,0.418,0.417C187.166,87.705,186.979,87.891,186.748,87.891z"/>
					</g>
				</g>
			</g>
			<g>
				<g>
					<g>
						<circle fill="#405B91" cx="180.31" cy="77.9" r="0.426"/>
					</g>
				</g>
				<g>
					<g>
						<circle fill="#405B91" cx="187.08" cy="80.704" r="0.426"/>
					</g>
				</g>
				<g>
					<g>
						<circle fill="#405B91" cx="189.884" cy="87.474" r="0.426"/>
					</g>
				</g>
				<g>
					<g>
						<circle fill="#405B91" cx="187.08" cy="94.244" r="0.426"/>
					</g>
				</g>
				<g>
					<g>
						<circle fill="#405B91" cx="180.31" cy="97.048" r="0.426"/>
					</g>
				</g>
				<g>
					<g>
						<circle fill="#405B91" cx="173.541" cy="94.244" r="0.426"/>
					</g>
				</g>
				<g>
					<g>
						<circle fill="#405B91" cx="170.736" cy="87.474" r="0.426"/>
					</g>
				</g>
				<g>
					<g>
						<circle fill="#405B91" cx="173.541" cy="80.704" r="0.426"/>
					</g>
				</g>
			</g>
			<g>
				<g>
					<g>
						<path fill="#405B91" d="M201.385,81.972h-6.049c-0.231,0-0.417-0.187-0.417-0.417c0-0.231,0.187-0.417,0.417-0.417h6.049
							c0.231,0,0.417,0.187,0.417,0.417C201.803,81.785,201.616,81.972,201.385,81.972z"/>
					</g>
				</g>
				<g>
					<g>
						<path fill="#405B91" d="M201.385,93.811h-6.049c-0.231,0-0.417-0.187-0.417-0.417c0-0.23,0.187-0.417,0.417-0.417h6.049
							c0.231,0,0.417,0.187,0.417,0.417C201.803,93.624,201.616,93.811,201.385,93.811z"/>
					</g>
				</g>
				<g>
					<g>
						<path fill="#405B91" d="M208.905,87.893h-11.299c-0.231,0-0.417-0.187-0.417-0.417c0-0.23,0.187-0.417,0.417-0.417h11.299
							c0.23,0,0.417,0.187,0.417,0.417C209.322,87.707,209.136,87.893,208.905,87.893z"/>
					</g>
				</g>
			</g>
		</g>
		<g>
			<g>
				<rect x="221.938" y="243.515" fill="#FFFFFF" width="6.683" height="6.682"/>
				<path fill="#415B91" d="M229.14,250.715h-7.72v-7.719h7.72V250.715z M222.457,249.678h5.646v-5.645h-5.646V249.678z"/>
			</g>
			<g>
				<g>
					<g>
						<path fill="#405B91" d="M237.078,244.983h-6.05c-0.23,0-0.417-0.187-0.417-0.417c0-0.231,0.187-0.418,0.417-0.418h6.05
							c0.23,0,0.417,0.187,0.417,0.418C237.495,244.797,237.309,244.983,237.078,244.983z"/>
					</g>
				</g>
				<g>
					<g>
						<path fill="#405B91" d="M239.351,249.563h-8.175c-0.313,0-0.564-0.187-0.564-0.417c0-0.231,0.252-0.418,0.564-0.418h8.175
							c0.312,0,0.564,0.187,0.564,0.418C239.915,249.376,239.662,249.563,239.351,249.563z"/>
					</g>
				</g>
				<g>
					<g>
						<path fill="#405B91" d="M242.328,247.145h-11.3c-0.23,0-0.417-0.187-0.417-0.418c0-0.23,0.187-0.417,0.417-0.417h11.3
							c0.23,0,0.417,0.187,0.417,0.417C242.745,246.958,242.559,247.145,242.328,247.145z"/>
					</g>
				</g>
			</g>
		</g>
		<g>
			<g>
				<rect x="75.215" y="145.459" fill="#FFFFFF" width="6.682" height="6.682"/>
				<path fill="#415B91" d="M82.415,152.66h-7.719v-7.719h7.719V152.66z M75.733,151.623h5.645v-5.645h-5.645V151.623z"/>
			</g>
			<g>
				<g>
					<g>
						<path fill="#405B91" d="M66.757,146.928h6.049c0.231,0,0.417-0.187,0.417-0.417s-0.187-0.417-0.417-0.417h-6.049
							c-0.23,0-0.417,0.187-0.417,0.417S66.527,146.928,66.757,146.928z"/>
					</g>
				</g>
				<g>
					<g>
						<path fill="#405B91" d="M64.485,151.507h8.175c0.312,0,0.564-0.187,0.564-0.417s-0.252-0.417-0.564-0.417h-8.175
							c-0.312,0-0.564,0.187-0.564,0.417S64.173,151.507,64.485,151.507z"/>
					</g>
				</g>
				<g>
					<g>
						<path fill="#405B91" d="M61.507,149.089h11.299c0.231,0,0.417-0.187,0.417-0.417c0-0.23-0.187-0.417-0.417-0.417H61.507
							c-0.23,0-0.417,0.187-0.417,0.417C61.09,148.902,61.277,149.089,61.507,149.089z"/>
					</g>
				</g>
			</g>
		</g>
		<g>
			<g>
				<rect x="279.006" y="170.567" fill="#3F5B91" width="2.074" height="89.193"/>
			</g>
			<g>
				<path fill="#B6D0FB" d="M280.271,181.359h-0.456c-3.385,0-6.153-2.769-6.153-6.152v-8.241c0-3.384,2.769-6.153,6.153-6.153
					h0.456c3.384,0,6.153,2.769,6.153,6.153v8.241C286.425,178.591,283.655,181.359,280.271,181.359z"/>
			</g>
			<g>
				<g>
					<path fill="#3F5B91" d="M288.396,175.392c0.729,0.117,1.459,0.234,2.189,0.352c0.489,0.079,0.7-0.67,0.206-0.75
						c-0.729-0.117-1.459-0.234-2.188-0.352C288.112,174.563,287.902,175.313,288.396,175.392L288.396,175.392z"/>
				</g>
			</g>
			<g>
				<g>
					<path fill="#3F5B91" d="M288.32,170.639c0.572-0.102,1.142-0.114,1.719-0.06c0.498,0.047,0.495-0.731,0-0.778
						c-0.649-0.062-1.283-0.026-1.926,0.087C287.621,169.976,287.83,170.726,288.32,170.639L288.32,170.639z"/>
				</g>
			</g>
			<g>
				<g>
					<path fill="#3F5B91" d="M288.083,166.309c0.56-0.222,1.118-0.444,1.678-0.666c0.46-0.182,0.26-0.935-0.206-0.75
						c-0.56,0.222-1.119,0.444-1.679,0.666C287.416,165.741,287.617,166.494,288.083,166.309L288.083,166.309z"/>
				</g>
			</g>
			<g>
				<g>
					<path fill="#3F5B91" d="M269.012,176.115c0.574-0.079,1.13-0.212,1.679-0.399c0.471-0.161,0.269-0.913-0.207-0.75
						c-0.549,0.188-1.104,0.32-1.679,0.399C268.312,175.434,268.521,176.184,269.012,176.115L269.012,176.115z"/>
				</g>
			</g>
			<g>
				<g>
					<path fill="#3F5B91" d="M268.002,170.587c0.721,0.02,1.417,0.127,2.11,0.323c0.482,0.136,0.688-0.615,0.207-0.751
						c-0.758-0.213-1.53-0.329-2.317-0.35C267.502,169.795,267.502,170.573,268.002,170.587L268.002,170.587z"/>
				</g>
			</g>
			<g>
				<g>
					<path fill="#3F5B91" d="M268.682,164.188c0.56,0.179,1.119,0.357,1.68,0.536c0.478,0.152,0.683-0.598,0.206-0.75
						c-0.56-0.179-1.119-0.357-1.68-0.536C268.41,163.286,268.205,164.037,268.682,164.188L268.682,164.188z"/>
				</g>
			</g>
			<g>
				<polygon fill="#405B91" points="275.203,260.97 276.586,249.048 283.327,249.048 284.883,260.797 				"/>
			</g>
		</g>
		<g>
			<g>
				<g>
					<g>
						<path fill="#6CDD6C" d="M84.868,203.895c-0.307-1.896-1.649-6.787-4.603-5.238c-4.78,2.506,0.985,12.02-4.774,13.697
							c-0.308-3.793-1.123-6.405-2.835-6.25c-3.531,0.32-2.593,8.535-2.65,10.384c-0.057,1.841-0.149,3.729-0.232,5.635
							c-4.155,0.745-3.334-10.092-5.86-11.591c-3.929-2.33-4.764,2.863-4.656,5.263c0.184,4.082,1.282,8.967,5.116,11.135
							c1.265,0.715,3.493,1.522,5.229,1.376c-0.018,3.265,0.122,6.51,0.661,9.606c0.006,0.033,0.061,0.033,0.067,0
							c0-0.003,0-0.005,0.001-0.008l2.328,0.126c0,0.014-0.001,0.028-0.002,0.043c-0.021,1.023,1.577,1.024,1.591,0
							c0.028-1.971,1.239-11.643,1.383-19.84c1.859,0.277,4.196-0.587,5.535-1.569C85.132,213.753,85.597,208.4,84.868,203.895z"/>
					</g>
					<g>
						<path fill="#50AA50" d="M73.438,239.282c-0.235,0-0.47-0.061-0.671-0.182c-0.25-0.151-0.423-0.379-0.503-0.651l-1.716-0.092
							l-0.625,0.021l-0.096-0.393c-0.458-2.629-0.671-5.57-0.668-9.221c-1.911-0.002-4.005-0.888-5.004-1.451
							c-4.09-2.313-5.162-7.53-5.34-11.5c-0.072-1.597,0.265-4.899,2.052-5.971c0.907-0.544,2.007-0.44,3.27,0.31
							c1.222,0.724,1.687,2.949,2.227,5.525c0.729,3.487,1.386,6,2.985,6.039l0.038-0.856c0.067-1.481,0.133-2.948,0.177-4.387
							c0.009-0.281-0.006-0.715-0.025-1.247c-0.111-3.234-0.319-9.254,3.077-9.562c0.524-0.051,1.002,0.104,1.417,0.454
							c0.947,0.797,1.553,2.64,1.846,5.624c2.146-0.957,2.035-3.443,1.908-6.291c-0.128-2.88-0.26-5.858,2.272-7.187
							c0.823-0.43,1.607-0.465,2.333-0.102c2.111,1.056,2.836,5.191,2.912,5.66l0,0c0.559,3.455,0.798,9.765-3.878,13.195
							c-1.304,0.956-3.5,1.797-5.364,1.698c-0.12,5.353-0.669,11.247-1.036,15.187c-0.184,1.975-0.329,3.533-0.338,4.174
							c-0.007,0.45-0.228,0.829-0.607,1.04C73.884,239.229,73.661,239.282,73.438,239.282z M70.637,237.478l2.474,0.134
							l-0.012,0.431c-0.006,0.205,0.068,0.269,0.124,0.303c0.122,0.072,0.302,0.073,0.431,0.001c0.102-0.056,0.151-0.146,0.153-0.28
							c0.009-0.675,0.149-2.171,0.342-4.242c0.376-4.044,0.945-10.155,1.042-15.599l0.009-0.502l0.498,0.074
							c1.716,0.255,3.964-0.577,5.208-1.489c4.297-3.152,4.056-9.086,3.529-12.342l0,0c-0.23-1.428-1.037-4.313-2.435-5.012
							c-0.463-0.233-0.963-0.202-1.528,0.093c-2.036,1.068-1.922,3.642-1.8,6.366c0.133,2.995,0.284,6.392-3.055,7.365l-0.52,0.15
							l-0.044-0.539c-0.307-3.78-1.032-5.129-1.586-5.595c-0.234-0.197-0.479-0.277-0.769-0.251
							c-2.564,0.231-2.369,5.919-2.274,8.652c0.019,0.556,0.034,1.011,0.025,1.306c-0.045,1.441-0.111,2.913-0.178,4.398
							l-0.071,1.595l-0.347,0.062c-2.844,0.509-3.644-3.318-4.351-6.698c-0.456-2.174-0.926-4.421-1.813-4.948
							c-0.963-0.569-1.759-0.676-2.366-0.311c-1.317,0.789-1.695,3.593-1.624,5.174c0.168,3.747,1.154,8.657,4.893,10.771
							c1.29,0.729,3.399,1.449,4.975,1.321l0.481-0.041l-0.003,0.483C70.022,231.951,70.212,234.879,70.637,237.478z"/>
					</g>
				</g>
				<g>
					<g>
						<g>
							<path fill="#415B91" d="M80.295,259.951H63.412c-0.9,0-1.62-0.589-1.79-1.465l-3.833-19.678l1.591-0.311l3.833,19.678
								c0.03,0.154,0.158,0.154,0.199,0.154h16.883c0.042,0,0.17,0,0.199-0.153l3.803-19.678l1.591,0.307l-3.802,19.68
								C81.917,259.362,81.196,259.951,80.295,259.951z"/>
						</g>
					</g>
				</g>
				<g>
					<g>
						<g>
							<path fill="#B6D0FB" d="M57.96,232.477h28.023c0.478,0,0.869,0.528,0.869,1.175v4.26c0,0.647-0.391,1.175-0.869,1.175H57.96
								c-0.478,0-0.868-0.527-0.868-1.175v-4.26C57.092,233.005,57.482,232.477,57.96,232.477z"/>
						</g>
						<g>
							<path fill="#405B91" d="M85.983,239.527H57.96c-0.722,0-1.31-0.726-1.31-1.616v-4.261c0-0.89,0.588-1.615,1.31-1.615h28.023
								c0.723,0,1.31,0.726,1.31,1.615v4.261C87.293,238.802,86.706,239.527,85.983,239.527z M57.96,232.918
								c-0.201,0-0.427,0.313-0.427,0.732v4.261c0,0.419,0.226,0.733,0.427,0.733h28.023c0.202,0,0.427-0.314,0.427-0.733v-4.261
								c0-0.419-0.226-0.732-0.427-0.732H57.96z"/>
						</g>
					</g>
					<g>
						<g>
							<path fill="#B6D0FB" d="M85.983,239.455H57.96c-0.682,0-1.237-0.692-1.237-1.544v-4.26c0-0.852,0.555-1.544,1.237-1.544
								h28.023c0.683,0,1.238,0.692,1.238,1.544v4.26C87.221,238.763,86.666,239.455,85.983,239.455z M57.96,232.846
								c-0.236,0-0.499,0.331-0.499,0.806v4.26c0,0.475,0.263,0.806,0.499,0.806h28.023c0.236,0,0.5-0.331,0.5-0.806v-4.26
								c0-0.475-0.263-0.806-0.5-0.806H57.96z"/>
						</g>
						<g>
							<path fill="#405B91" d="M85.983,239.896H57.96c-0.925,0-1.678-0.891-1.678-1.985v-4.26c0-1.095,0.753-1.985,1.678-1.985
								h28.023c0.926,0,1.679,0.891,1.679,1.985v4.26C87.663,239.006,86.909,239.896,85.983,239.896z M58.011,233.287
								c-0.04,0.044-0.108,0.168-0.108,0.364v4.26c0,0.227,0.091,0.356,0.125,0.379l27.957-0.015
								c-0.033-0.008,0.058-0.138,0.058-0.364v-4.26c0-0.227-0.092-0.356-0.125-0.379L58.011,233.287z"/>
						</g>
					</g>
				</g>
			</g>
			<g>
				<g>
					<path fill="#50AA50" d="M61.016,215.748c0.46,0.059,0.921,0.117,1.382,0.176c0.495,0.063,0.49-0.715,0-0.777
						c-0.461-0.059-0.922-0.118-1.382-0.177C60.521,214.907,60.525,215.686,61.016,215.748L61.016,215.748z"/>
				</g>
			</g>
			<g>
				<g>
					<path fill="#50AA50" d="M63.05,209.631c0,0.23,0,0.461,0,0.691c0,0.501,0.778,0.501,0.778,0c0-0.23,0-0.461,0-0.691
						C63.828,209.131,63.05,209.13,63.05,209.631L63.05,209.631z"/>
				</g>
			</g>
			<g>
				<g>
					<path fill="#50AA50" d="M65.74,216.764c0.337-0.188,0.675-0.376,1.012-0.563c0.438-0.244,0.046-0.916-0.393-0.672
						c-0.337,0.188-0.674,0.376-1.012,0.563C64.91,216.335,65.302,217.007,65.74,216.764L65.74,216.764z"/>
				</g>
			</g>
			<g>
				<g>
					<path fill="#50AA50" d="M61.746,225.713c0.406-0.284,0.812-0.568,1.218-0.853c0.407-0.285,0.019-0.959-0.393-0.672
						c-0.406,0.284-0.813,0.568-1.218,0.853C60.946,225.325,61.334,226,61.746,225.713L61.746,225.713z"/>
				</g>
			</g>
			<g>
				<g>
					<path fill="#50AA50" d="M58.83,219.024c0.289,0.113,0.578,0.227,0.867,0.34c0.466,0.183,0.668-0.569,0.207-0.75
						c-0.289-0.113-0.578-0.227-0.866-0.34C58.57,218.092,58.368,218.844,58.83,219.024L58.83,219.024z"/>
				</g>
			</g>
			<g>
				<g>
					<path fill="#50AA50" d="M64.476,222.636c0.186,0.013,0.295,0.101,0.409,0.238c0.319,0.387,0.866-0.166,0.55-0.55
						c-0.25-0.303-0.574-0.438-0.959-0.467C63.977,221.822,63.979,222.6,64.476,222.636L64.476,222.636z"/>
				</g>
			</g>
			<g>
				<g>
					<path fill="#50AA50" d="M66.182,226.295c-0.084,0.545-0.024,1.009,0.19,1.516c0.194,0.459,0.865,0.063,0.671-0.393
						c-0.125-0.297-0.161-0.599-0.111-0.916C67.008,226.012,66.259,225.801,66.182,226.295L66.182,226.295z"/>
				</g>
			</g>
			<g>
				<g>
					<path fill="#50AA50" d="M70.246,226.438c0.229,0.061,0.459,0.122,0.688,0.184c0.484,0.129,0.691-0.621,0.207-0.75
						c-0.229-0.062-0.459-0.123-0.688-0.184C69.969,225.559,69.762,226.309,70.246,226.438L70.246,226.438z"/>
				</g>
			</g>
			<g>
				<g>
					<path fill="#50AA50" d="M72.729,218.792c-0.041,0.442,0.126,0.845,0.465,1.131c0.38,0.321,0.934-0.227,0.55-0.55
						c-0.198-0.167-0.261-0.326-0.237-0.581C73.553,218.294,72.774,218.297,72.729,218.792L72.729,218.792z"/>
				</g>
			</g>
			<g>
				<g>
					<path fill="#50AA50" d="M71.742,213.234c-0.226,0.309-0.266,0.623-0.201,0.991c0.086,0.492,0.836,0.284,0.75-0.206
						c-0.025-0.157,0.016-0.288,0.122-0.393C72.71,213.223,72.036,212.835,71.742,213.234L71.742,213.234z"/>
				</g>
			</g>
			<g>
				<g>
					<path fill="#50AA50" d="M76.013,215.508c0,0.23,0,0.461,0,0.691c0,0.5,0.778,0.501,0.778,0c0-0.23,0-0.461,0-0.691
						C76.791,215.007,76.013,215.007,76.013,215.508L76.013,215.508z"/>
				</g>
			</g>
			<g>
				<g>
					<path fill="#50AA50" d="M68.773,214.288c0.173,0.115,0.346,0.23,0.519,0.346c0.418,0.278,0.808-0.396,0.393-0.672
						c-0.173-0.115-0.346-0.23-0.519-0.346C68.749,213.338,68.358,214.012,68.773,214.288L68.773,214.288z"/>
				</g>
			</g>
			<g>
				<g>
					<path fill="#50AA50" d="M70.075,207.835c0.15,0.175,0.225,0.355,0.243,0.586c0.038,0.496,0.816,0.5,0.778,0
						c-0.034-0.446-0.18-0.798-0.47-1.137C70.299,206.903,69.751,207.456,70.075,207.835L70.075,207.835z"/>
				</g>
			</g>
			<g>
				<g>
					<path fill="#50AA50" d="M72.038,205.482c0,0.346,0,0.691,0,1.037c0,0.501,0.778,0.502,0.778,0c0-0.346,0-0.691,0-1.037
						C72.816,204.982,72.038,204.981,72.038,205.482L72.038,205.482z"/>
				</g>
			</g>
			<g>
				<g>
					<path fill="#50AA50" d="M76.847,210.052c0.112,0.118,0.225,0.236,0.337,0.354c0.346,0.363,0.896-0.188,0.55-0.55
						c-0.112-0.118-0.225-0.236-0.337-0.354C77.051,209.139,76.501,209.689,76.847,210.052L76.847,210.052z"/>
				</g>
			</g>
			<g>
				<g>
					<path fill="#50AA50" d="M77.618,205.417c0.345,0.02,0.689,0.039,1.034,0.06c0.5,0.028,0.498-0.75,0-0.778
						c-0.345-0.02-0.689-0.039-1.034-0.059C77.118,204.61,77.12,205.389,77.618,205.417L77.618,205.417z"/>
				</g>
			</g>
			<g>
				<g>
					<path fill="#50AA50" d="M78.72,199.189c0.23,0.23,0.46,0.461,0.691,0.691c0.354,0.354,0.904-0.195,0.55-0.55
						c-0.23-0.23-0.461-0.461-0.691-0.691C78.916,198.285,78.365,198.835,78.72,199.189L78.72,199.189z"/>
				</g>
			</g>
			<g>
				<g>
					<path fill="#50AA50" d="M81.717,197.186c0,0.403,0,0.807,0,1.211c0,0.5,0.778,0.501,0.778,0c0-0.404,0-0.808,0-1.211
						C82.495,196.686,81.717,196.685,81.717,197.186L81.717,197.186z"/>
				</g>
			</g>
			<g>
				<g>
					<path fill="#50AA50" d="M83.127,204.465c0.114-0.174,0.229-0.347,0.343-0.521c0.276-0.419-0.397-0.81-0.671-0.393
						c-0.114,0.174-0.229,0.347-0.343,0.521C82.179,204.491,82.852,204.881,83.127,204.465L83.127,204.465z"/>
				</g>
			</g>
			<g>
				<g>
					<path fill="#50AA50" d="M80.49,212.104c0.289-0.112,0.578-0.226,0.867-0.338c0.462-0.179,0.261-0.932-0.207-0.75
						c-0.289,0.112-0.579,0.226-0.868,0.338C79.822,211.532,80.022,212.285,80.49,212.104L80.49,212.104z"/>
				</g>
			</g>
			<g>
				<g>
					<path fill="#50AA50" d="M83.933,211.019c0.288-0.06,0.575-0.12,0.863-0.18c0.49-0.101,0.283-0.851-0.207-0.75
						c-0.288,0.06-0.575,0.12-0.863,0.18C83.236,210.369,83.443,211.119,83.933,211.019L83.933,211.019z"/>
				</g>
			</g>
			<g>
				<g>
					<path fill="#50AA50" d="M81.717,214.644c0,0.058,0,0.115,0,0.173c0,0.5,0.778,0.501,0.778,0c0-0.058,0-0.115,0-0.173
						C82.495,214.143,81.717,214.143,81.717,214.644L81.717,214.644z"/>
				</g>
			</g>
			<g>
				<g>
					<path fill="#50AA50" d="M75.038,226.553c0.173-0.115,0.346-0.23,0.519-0.346c0.415-0.276,0.026-0.95-0.393-0.672
						c-0.173,0.115-0.346,0.23-0.519,0.346C74.231,226.157,74.62,226.831,75.038,226.553L75.038,226.553z"/>
				</g>
			</g>
			<g>
				<g>
					<path fill="#50AA50" d="M74.584,229.42c0.31-0.298,0.641-0.47,1.058-0.567c0.487-0.113,0.281-0.864-0.207-0.75
						c-0.541,0.127-1.001,0.383-1.401,0.767C73.672,229.217,74.223,229.766,74.584,229.42L74.584,229.42z"/>
				</g>
			</g>
			<g>
				<g>
					<path fill="#50AA50" d="M71.381,229.887c0.058,0.115,0.117,0.23,0.175,0.345c0.227,0.446,0.898,0.053,0.671-0.393
						c-0.058-0.115-0.117-0.229-0.175-0.345C71.825,229.049,71.154,229.441,71.381,229.887L71.381,229.887z"/>
				</g>
			</g>
			<g>
				<g>
					<path fill="#50AA50" d="M68.419,230.724c0.436,0.227,0.862,0.283,1.343,0.187c0.49-0.1,0.283-0.85-0.207-0.75
						c-0.273,0.055-0.499,0.02-0.744-0.108C68.368,229.821,67.974,230.492,68.419,230.724L68.419,230.724z"/>
				</g>
			</g>
			<g>
				<g>
					<path fill="#50AA50" d="M74.849,223.347c0.518-0.065,1.036-0.13,1.553-0.195c0.49-0.061,0.496-0.84,0-0.777
						c-0.518,0.064-1.035,0.13-1.553,0.194C74.359,222.63,74.353,223.408,74.849,223.347L74.849,223.347z"/>
				</g>
			</g>
		</g>
		<g>
			<g>
				<g>
					<path fill="#D7E7FF" d="M144.509,189.262c8.372-7.568,16.743-15.137,25.114-22.705c1.241-1.122-0.598-2.951-1.833-1.833
						c-8.372,7.568-16.743,15.137-25.115,22.704C141.436,188.55,143.274,190.379,144.509,189.262L144.509,189.262z"/>
				</g>
			</g>
			<g>
				<g>
					<path fill="#D7E7FF" d="M172.892,200.842c8.372-7.568,16.743-15.136,25.115-22.704c1.24-1.122-0.598-2.95-1.833-1.833
						c-8.372,7.567-16.743,15.136-25.114,22.704C169.818,200.13,171.657,201.959,172.892,200.842L172.892,200.842z"/>
				</g>
			</g>
			<g>
				<g>
					<path fill="#D7E7FF" d="M142.051,209.42c17.546-17.109,35.092-34.218,52.637-51.327c1.197-1.167-0.637-3-1.833-1.833
						c-17.546,17.109-35.092,34.218-52.637,51.328C139.021,208.754,140.855,210.586,142.051,209.42L142.051,209.42z"/>
				</g>
			</g>
		</g>
		<g>
			<g>
				<g>
					<g>
						<g>
							<rect x="221.375" y="49.813" fill="#415B91" width="1.128" height="72.438"/>
						</g>
					</g>
					<g>
						<g>
							<circle fill="#415B91" cx="221.939" cy="122.251" r="4.598"/>
						</g>
					</g>
					<g>
						<g>
							<path fill="#415B91" d="M222.003,137.678c-0.076,0-1.577-0.015-2.673-1.108c-0.73-0.73-1.102-1.744-1.102-3.013
								c0-0.336,0.272-0.608,0.608-0.608s0.608,0.272,0.608,0.608c0,0.934,0.251,1.658,0.745,2.151
								c0.735,0.734,1.802,0.753,1.813,0.753c1.717,0,3.112-1.396,3.112-3.111c0-1.716-1.396-3.111-3.111-3.111
								c-0.336,0-0.608-0.272-0.608-0.608v-3.381c0-0.336,0.272-0.608,0.608-0.608c0.337,0,0.608,0.272,0.608,0.608v2.815
								c2.1,0.297,3.72,2.105,3.72,4.286C226.332,135.736,224.391,137.678,222.003,137.678
								C222.004,137.678,222.004,137.678,222.003,137.678z"/>
						</g>
					</g>
				</g>
				<g>
					<g>
						<g>
							<path fill="#415B91" d="M197.856,140.509c-0.233-0.041-0.425-0.227-0.461-0.474c-0.045-0.308,0.167-0.595,0.476-0.64
								l24.889-3.667c0.309-0.046,0.596,0.168,0.641,0.476s-0.168,0.595-0.477,0.64l-24.889,3.667
								C197.974,140.521,197.914,140.52,197.856,140.509z"/>
						</g>
					</g>
					<g>
						<g>
							<path fill="#415B91" d="M245.632,148.792c-0.056-0.01-0.111-0.028-0.164-0.056l-22.887-11.95
								c-0.276-0.144-0.384-0.485-0.239-0.761c0.145-0.276,0.484-0.384,0.762-0.239l22.886,11.949
								c0.276,0.144,0.384,0.485,0.239,0.761C246.112,148.72,245.867,148.833,245.632,148.792z"/>
						</g>
					</g>
					<g>
						<path fill="#FFFFFF" d="M243.765,196.571l-60.955-10.592c-3.194-0.555-5.333-3.594-4.778-6.787l6.099-35.098
							c0.555-3.193,3.594-5.333,6.788-4.778l60.956,10.592c3.193,0.555,5.333,3.594,4.777,6.788l-6.098,35.098
							C249.997,194.987,246.959,197.127,243.765,196.571z"/>
						<path fill="#415B91" d="M244.597,197.403c-0.39,0-0.783-0.034-1.181-0.103l-60.525-10.517
							c-1.807-0.314-3.383-1.313-4.438-2.813c-1.055-1.5-1.463-3.32-1.149-5.127l6.024-34.668c0.648-3.729,4.21-6.235,7.938-5.588
							l60.526,10.518c1.807,0.313,3.384,1.312,4.439,2.812c1.055,1.499,1.463,3.32,1.15,5.126l-6.024,34.668
							C250.776,195.046,247.869,197.402,244.597,197.403z M190.087,140.042c-2.532,0-4.78,1.823-5.229,4.401l-6.024,34.668
							c-0.243,1.397,0.073,2.806,0.889,3.966c0.816,1.16,2.036,1.932,3.433,2.175l60.526,10.517c2.881,0.505,5.638-1.438,6.14-4.321
							l6.024-34.668c0.242-1.397-0.073-2.806-0.89-3.965s-2.036-1.932-3.433-2.175l-60.526-10.518
							C190.693,140.067,190.388,140.042,190.087,140.042z"/>
					</g>
					<g>
						<path fill="#B6D0FB" d="M243.308,192.771l-58.786-10.215c-2.041-0.354-3.408-2.297-3.053-4.337l5.569-32.05
							c0.354-2.041,2.296-3.407,4.337-3.053l58.785,10.215c2.041,0.354,3.407,2.296,3.053,4.337l-5.568,32.05
							C247.29,191.759,245.348,193.126,243.308,192.771z"/>
						<path fill="#405B91" d="M243.846,193.584c-0.269,0-0.539-0.023-0.808-0.07l-58.512-10.168c-1.228-0.213-2.3-0.892-3.017-1.91
							c-0.718-1.02-0.996-2.258-0.782-3.486l5.521-31.775c0.44-2.535,2.857-4.242,5.397-3.799l58.511,10.167
							c2.536,0.44,4.24,2.861,3.8,5.396l-5.521,31.775c-0.214,1.229-0.892,2.3-1.912,3.019
							C245.728,193.292,244.799,193.584,243.846,193.584z M243.303,191.98c0.818,0.142,1.646-0.043,2.324-0.521
							c0.68-0.478,1.133-1.193,1.274-2.012l5.521-31.776c0.294-1.69-0.843-3.304-2.532-3.598l-58.512-10.167
							c-1.687-0.292-3.304,0.843-3.599,2.533l-5.521,31.775c-0.143,0.819,0.043,1.644,0.521,2.323
							c0.478,0.68,1.192,1.133,2.011,1.274L243.303,191.98z"/>
					</g>
					<g>
						<polygon fill="#FFFFFF" points="215.42,187.926 230.632,173.984 239.05,192.031 						"/>
						<path fill="#415B91" d="M239.939,192.712l-25.647-4.456l16.511-15.131L239.939,192.712z M216.549,187.596l21.61,3.755
							l-7.699-16.506L216.549,187.596z"/>
					</g>
					<g>
						<polygon fill="#FFFFFF" points="185.343,182.699 212.311,157.983 227.235,189.979 						"/>
						<path fill="#415B91" d="M228.126,190.659l-43.911-7.63l28.267-25.906L228.126,190.659z M186.47,182.369l39.875,6.929
							l-14.206-30.455L186.47,182.369z"/>
					</g>
					<g>
						<circle fill="#FFFFFF" cx="240.662" cy="162.023" r="3.771"/>
						<path fill="#415B91" d="M240.67,166.314c-0.246,0-0.495-0.021-0.743-0.064c-2.331-0.405-3.896-2.63-3.491-4.96
							c0.195-1.129,0.819-2.114,1.757-2.774c0.936-0.659,2.072-0.915,3.204-0.719c1.128,0.196,2.113,0.82,2.772,1.757
							s0.915,2.075,0.718,3.204c-0.195,1.129-0.819,2.114-1.757,2.774C242.399,166.046,241.546,166.314,240.67,166.314z
							 M240.654,158.77c-0.664,0-1.312,0.204-1.865,0.594c-0.711,0.5-1.184,1.247-1.333,2.103c-0.147,0.856,0.046,1.719,0.545,2.429
							c0.501,0.71,1.248,1.184,2.104,1.332c0.851,0.148,1.718-0.044,2.429-0.544c0.711-0.5,1.184-1.248,1.333-2.104l0,0
							c0.307-1.767-0.881-3.454-2.648-3.761C241.03,158.786,240.842,158.77,240.654,158.77z"/>
					</g>
				</g>
				<g>
					<g>
						<rect x="212.042" y="47.376" fill="#B6D0FB" width="56.527" height="6.22"/>
					</g>
				</g>
				<g>
					<g>
						<g>
							<g>
								<g>
									<g>
										<path fill="#415B91" d="M317.693,175.98h-18.766V10.061h18.766V175.98z M300.783,174.124h15.054V11.917h-15.054V174.124z"
											/>
									</g>
								</g>
								<g>
									<g>
										<g>
											<path fill="#415B91" d="M317.458,28.272h-18.296V9.978h18.296V28.272z M301.043,26.392h14.534V11.858h-14.534V26.392z"/>
										</g>
									</g>
									<g>
										<g>
											
												<rect x="296.703" y="18.185" transform="matrix(0.7071 0.7071 -0.7071 0.7071 103.8186 -212.4004)" fill="#415B91" width="23.214" height="1.881"/>
										</g>
									</g>
									<g>
										<g>
											
												<rect x="307.37" y="7.518" transform="matrix(0.7072 0.707 -0.707 0.7072 103.783 -212.3689)" fill="#415B91" width="1.881" height="23.214"/>
										</g>
									</g>
								</g>
								<g>
									<g>
										<g>
											<path fill="#415B91" d="M317.458,44.687h-18.296V26.392h18.296V44.687z M301.043,42.806h14.534V28.272h-14.534V42.806z"
												/>
										</g>
									</g>
									<g>
										<g>
											
												<rect x="296.703" y="34.599" transform="matrix(0.7071 0.7071 -0.7071 0.7071 115.4286 -207.596)" fill="#415B91" width="23.214" height="1.881"/>
										</g>
									</g>
									<g>
										<g>
											
												<rect x="307.37" y="23.933" transform="matrix(0.7071 0.7071 -0.7071 0.7071 115.4322 -207.5988)" fill="#415B91" width="1.881" height="23.214"/>
										</g>
									</g>
								</g>
								<g>
									<g>
										<g>
											<path fill="#415B91" d="M317.458,61.102h-18.296V42.806h18.296V61.102z M301.043,59.221h14.534V44.687h-14.534V59.221z"
												/>
										</g>
									</g>
									<g>
										<g>
											
												<rect x="296.703" y="51.013" transform="matrix(0.7071 0.7071 -0.7071 0.7071 127.0311 -202.7859)" fill="#415B91" width="23.214" height="1.881"/>
										</g>
									</g>
									<g>
										<g>
											
												<rect x="307.37" y="40.347" transform="matrix(0.7072 0.707 -0.707 0.7072 126.9919 -202.758)" fill="#415B91" width="1.881" height="23.214"/>
										</g>
									</g>
								</g>
								<g>
									<g>
										<g>
											<path fill="#415B91" d="M317.458,77.516h-18.296V59.221h18.296V77.516z M301.043,75.635h14.534V61.102h-14.534V75.635z"
												/>
										</g>
									</g>
									<g>
										<g>
											
												<rect x="296.703" y="67.428" transform="matrix(0.7071 0.7071 -0.7071 0.7071 138.6415 -197.981)" fill="#415B91" width="23.214" height="1.881"/>
										</g>
									</g>
									<g>
										<g>
											
												<rect x="307.37" y="56.761" transform="matrix(0.7071 0.7071 -0.7071 0.7071 138.6455 -197.9836)" fill="#415B91" width="1.881" height="23.214"/>
										</g>
									</g>
								</g>
								<g>
									<g>
										<g>
											<path fill="#415B91" d="M317.458,93.93h-18.296V75.635h18.296V93.93z M301.043,92.049h14.534V77.516h-14.534V92.049z"/>
										</g>
									</g>
									<g>
										<g>
											
												<rect x="296.703" y="83.842" transform="matrix(0.7071 0.7071 -0.7071 0.7071 150.2437 -193.1713)" fill="#415B91" width="23.214" height="1.881"/>
										</g>
									</g>
									<g>
										<g>
											
												<rect x="307.37" y="73.175" transform="matrix(0.7072 0.707 -0.707 0.7072 150.201 -193.147)" fill="#415B91" width="1.881" height="23.214"/>
										</g>
									</g>
								</g>
								<g>
									<g>
										<g>
											<path fill="#415B91" d="M317.458,110.344h-18.296V92.049h18.296V110.344z M301.043,108.464h14.534V93.93h-14.534V108.464
												z"/>
										</g>
									</g>
									<g>
										<g>
											
												<rect x="296.703" y="100.256" transform="matrix(0.7071 0.7071 -0.7071 0.7071 161.8545 -188.3661)" fill="#415B91" width="23.214" height="1.881"/>
										</g>
									</g>
									<g>
										<g>
											
												<rect x="307.37" y="89.59" transform="matrix(0.7072 0.707 -0.707 0.7072 161.8057 -188.3414)" fill="#415B91" width="1.881" height="23.214"/>
										</g>
									</g>
								</g>
								<g>
									<g>
										<g>
											<path fill="#415B91" d="M317.458,126.758h-18.296v-18.294h18.296V126.758z M301.043,124.878h14.534v-14.534h-14.534
												V124.878z"/>
										</g>
									</g>
									<g>
										<g>
											
												<rect x="296.703" y="116.671" transform="matrix(0.7071 0.7071 -0.7071 0.7071 173.4566 -183.5566)" fill="#415B91" width="23.214" height="1.881"/>
										</g>
									</g>
									<g>
										<g>
											
												<rect x="307.37" y="106.004" transform="matrix(0.7072 0.707 -0.707 0.7072 173.4102 -183.5359)" fill="#415B91" width="1.881" height="23.214"/>
										</g>
									</g>
								</g>
								<g>
									<g>
										<g>
											<path fill="#415B91" d="M317.458,143.173h-18.296v-18.295h18.296V143.173z M301.043,141.292h14.534v-14.534h-14.534
												V141.292z"/>
										</g>
									</g>
									<g>
										<g>
											
												<rect x="296.703" y="133.085" transform="matrix(0.7071 0.7071 -0.7071 0.7071 185.0675 -178.7512)" fill="#415B91" width="23.214" height="1.881"/>
										</g>
									</g>
									<g>
										<g>
											
												<rect x="307.37" y="122.419" transform="matrix(0.7071 0.7071 -0.7071 0.7071 185.0722 -178.753)" fill="#415B91" width="1.881" height="23.214"/>
										</g>
									</g>
								</g>
								<g>
									<g>
										<g>
											<path fill="#415B91" d="M317.458,159.587h-18.296v-18.295h18.296V159.587z M301.043,157.707h14.534v-14.534h-14.534
												V157.707z"/>
										</g>
									</g>
									<g>
										<g>
											
												<rect x="296.703" y="149.499" transform="matrix(0.7071 0.7071 -0.7071 0.7071 196.669 -173.9421)" fill="#415B91" width="23.214" height="1.881"/>
										</g>
									</g>
									<g>
										<g>
											
												<rect x="307.37" y="138.832" transform="matrix(0.7072 0.707 -0.707 0.7072 196.6191 -173.9249)" fill="#415B91" width="1.881" height="23.214"/>
										</g>
									</g>
								</g>
								<g>
									<g>
										<g>
											<path fill="#415B91" d="M317.458,176.001h-18.296v-18.294h18.296V176.001z M301.043,174.12h14.534v-14.533h-14.534
												V174.12z"/>
										</g>
									</g>
									<g>
										<g>
											
												<rect x="296.703" y="165.913" transform="matrix(0.7071 0.7071 -0.7071 0.7071 208.2754 -169.1348)" fill="#415B91" width="23.214" height="1.881"/>
										</g>
									</g>
									<g>
										<g>
											
												<rect x="307.37" y="155.247" transform="matrix(0.7071 0.7071 -0.7071 0.7071 208.2853 -169.1378)" fill="#415B91" width="1.881" height="23.213"/>
										</g>
									</g>
								</g>
							</g>
							<g>
								<g>
									<g>
										<g>
											<path fill="#415B91" d="M350.119,44.439h-18.295V26.145h18.295V44.439z M333.704,42.559h14.534V28.025h-14.534V42.559z"
												/>
										</g>
									</g>
									<g>
										<g>
											
												<rect x="340.031" y="23.685" transform="matrix(0.7075 0.7067 -0.7067 0.7075 124.677 -230.6476)" fill="#415B91" width="1.881" height="23.214"/>
										</g>
									</g>
									<g>
										<g>
											
												<rect x="329.365" y="34.351" transform="matrix(0.7071 0.7071 -0.7071 0.7071 124.8156 -230.7602)" fill="#415B91" width="23.214" height="1.882"/>
										</g>
									</g>
								</g>
								<g>
									<g>
										<g>
											<path fill="#415B91" d="M333.704,44.439H315.41V26.145h18.294V44.439z M317.29,42.559h14.534V28.025H317.29V42.559z"/>
										</g>
									</g>
									<g>
										<g>
											
												<rect x="323.616" y="23.685" transform="matrix(0.7072 0.707 -0.707 0.7072 119.9689 -219.1219)" fill="#415B91" width="1.881" height="23.213"/>
										</g>
									</g>
									<g>
										<g>
											
												<rect x="312.95" y="34.351" transform="matrix(0.7071 0.7071 -0.7071 0.7071 120.0156 -219.1594)" fill="#415B91" width="23.213" height="1.881"/>
										</g>
									</g>
								</g>
								<g>
									<g>
										<path fill="#415B91" d="M317.29,44.439h-18.295V26.145h18.295V44.439z M300.876,42.559h14.534V28.025h-14.534V42.559z"/>
									</g>
								</g>
								<g>
									<g>
										<g>
											<path fill="#415B91" d="M300.876,44.439h-18.295V26.145h18.295V44.439z M284.462,42.559h14.533V28.025h-14.533V42.559z"
												/>
										</g>
									</g>
									<g>
										<g>
											
												<rect x="290.788" y="23.685" transform="matrix(0.7072 0.707 -0.707 0.7072 110.3581 -195.9131)" fill="#415B91" width="1.881" height="23.213"/>
										</g>
									</g>
									<g>
										<g>
											
												<rect x="280.122" y="34.351" transform="matrix(0.7071 0.7071 -0.7071 0.7071 110.4005 -195.9464)" fill="#415B91" width="23.213" height="1.881"/>
										</g>
									</g>
								</g>
								<g>
									<g>
										<g>
											<path fill="#415B91" d="M284.462,44.439h-18.295V26.145h18.295V44.439z M268.047,42.559h14.534V28.025h-14.534V42.559z"
												/>
										</g>
									</g>
									<g>
										<g>
											
												<rect x="274.374" y="23.685" transform="matrix(0.707 0.7072 -0.7072 0.707 105.6331 -184.3708)" fill="#415B91" width="1.88" height="23.213"/>
										</g>
									</g>
									<g>
										<g>
											
												<rect x="263.707" y="34.352" transform="matrix(0.7071 0.7071 -0.7071 0.7071 105.5928 -184.3396)" fill="#415B91" width="23.213" height="1.88"/>
										</g>
									</g>
								</g>
								<g>
									<g>
										<g>
											<path fill="#415B91" d="M268.047,44.439h-18.295V26.145h18.295V44.439z M251.633,42.559h14.534V28.025h-14.534V42.559z"
												/>
										</g>
									</g>
									<g>
										<g>
											<path fill="#415B91" d="M250.692,44.439h-16.414c-0.38,0-0.723-0.229-0.869-0.581c-0.145-0.351-0.064-0.755,0.204-1.024
												l16.414-16.415l1.33,1.33l-14.809,14.809h13.754l16.14-16.139l1.329,1.33l-16.414,16.414
												C251.182,44.34,250.942,44.439,250.692,44.439z"/>
										</g>
									</g>
									<g>
										<g>
											
												<rect x="247.293" y="34.351" transform="matrix(0.7071 0.7071 -0.7071 0.7071 100.7791 -172.7284)" fill="#415B91" width="23.214" height="1.881"/>
										</g>
									</g>
								</g>
							</g>
						</g>
						<g>
							<g>
								<g>
									<path fill="#415B91" d="M317.733,194.275h-18.806V175.98h18.806V194.275z M300.86,192.395H315.8v-14.533H300.86V192.395z"
										/>
								</g>
							</g>
							<g>
								<g>
									<polygon fill="#415B91" points="316.083,194 299.211,177.586 300.577,176.256 317.45,192.67 									"/>
								</g>
							</g>
							<g>
								<g>
									<polygon fill="#415B91" points="300.577,194 299.211,192.67 316.083,176.256 317.45,177.586 									"/>
								</g>
							</g>
						</g>
						<g>
							<g>
								<g>
									<path fill="#415B91" d="M317.733,259.933h-18.806v-18.295h18.806V259.933z M300.86,258.052H315.8v-14.533H300.86V258.052z"
										/>
								</g>
							</g>
							<g>
								<g>
									<polygon fill="#415B91" points="316.083,259.657 299.211,243.243 300.577,241.913 317.45,258.327 									"/>
								</g>
							</g>
							<g>
								<g>
									<polygon fill="#415B91" points="300.577,259.657 299.211,258.327 316.083,241.913 317.45,243.243 									"/>
								</g>
							</g>
						</g>
					</g>
					<g>
						<g>
							<g>
								<path fill="#415B91" d="M317.733,209.134h-18.806v-18.295h18.806V209.134z M300.86,207.254H315.8V192.72H300.86V207.254z"/>
							</g>
						</g>
						<g>
							<g>
								<polygon fill="#415B91" points="316.083,208.859 299.211,192.444 300.577,191.114 317.45,207.528 								"/>
							</g>
						</g>
						<g>
							<g>
								<polygon fill="#415B91" points="300.577,208.859 299.211,207.528 316.083,191.114 317.45,192.444 								"/>
							</g>
						</g>
					</g>
					<g>
						<g>
							<g>
								<path fill="#415B91" d="M317.733,225.548h-18.806v-18.294h18.806V225.548z M300.86,223.668H315.8v-14.534H300.86V223.668z"
									/>
							</g>
						</g>
						<g>
							<g>
								<polygon fill="#415B91" points="316.083,225.273 299.211,208.858 300.577,207.529 317.45,223.943 								"/>
							</g>
						</g>
						<g>
							<g>
								<polygon fill="#415B91" points="300.577,225.273 299.211,223.943 316.083,207.529 317.45,208.858 								"/>
							</g>
						</g>
					</g>
					<g>
						<g>
							<g>
								<path fill="#415B91" d="M317.733,241.963h-18.806v-18.295h18.806V241.963z M300.86,240.082H315.8v-14.534H300.86V240.082z"
									/>
							</g>
						</g>
						<g>
							<g>
								<polygon fill="#415B91" points="316.083,241.688 299.211,225.272 300.577,223.943 317.45,240.357 								"/>
							</g>
						</g>
						<g>
							<g>
								<polygon fill="#415B91" points="300.577,241.688 299.211,240.357 316.083,223.943 317.45,225.272 								"/>
							</g>
						</g>
					</g>
				</g>
			</g>
		</g>
		<g>
			<path fill="#405B91" d="M107.86,107.977"/>
			<g>
				<path fill="#405B91" d="M107.86,109.532c2.002,0,2.005-3.111,0-3.111C105.858,106.421,105.855,109.532,107.86,109.532
					L107.86,109.532z"/>
			</g>
		</g>
		<g>
			<path fill="#405B91" d="M276.559,75.481"/>
			<g>
				<path fill="#405B91" d="M276.559,77.037c2.002,0,2.005-3.111,0-3.111C274.557,73.926,274.553,77.037,276.559,77.037
					L276.559,77.037z"/>
			</g>
		</g>
		<g>
			<path fill="#405B91" d="M346.389,186.795c0.23,0,0.461,0,0.691,0"/>
			<g>
				<path fill="#405B91" d="M346.389,188.35c0.23,0,0.461,0,0.691,0c0.813,0,1.593-0.715,1.556-1.555
					c-0.038-0.843-0.684-1.556-1.556-1.556c-0.23,0-0.461,0-0.691,0c-0.814,0-1.594,0.715-1.556,1.556
					C344.87,187.638,345.517,188.35,346.389,188.35L346.389,188.35z"/>
			</g>
		</g>
		<g>
			<path fill="#405B91" d="M46.327,209.61"/>
			<g>
				<path fill="#405B91" d="M46.327,211.166c2.002,0,2.005-3.111,0-3.111C44.325,208.055,44.322,211.166,46.327,211.166
					L46.327,211.166z"/>
			</g>
		</g>
		<g>
			<path fill="#405B91" d="M194.975,60.271"/>
			<g>
				<path fill="#405B91" d="M194.975,61.827c2.001,0,2.005-3.111,0-3.111C192.973,58.715,192.97,61.827,194.975,61.827
					L194.975,61.827z"/>
			</g>
		</g>
	</g>
</g>
<g id="DESIGNED_BY_FREEPIK">
</g>
</svg>
